<svg id="Layer_1" data-name="Layer 1" xmlns="http://www.w3.org/2000/svg" xmlns:xlink="http://www.w3.org/1999/xlink" viewBox="0 0 161.58 161.58"><defs><style>.cls-1{fill:url(#linear-gradient);}.cls-2{fill:#1d1d1b;}.cls-3,.cls-4{fill:#fff;}.cls-4{stroke:#000;stroke-miterlimit:10;}</style><linearGradient id="linear-gradient" x1="165.71" y1="75.22" x2="-0.14" y2="86.1" gradientUnits="userSpaceOnUse"><stop offset="0" stop-color="#af182c"/><stop offset="0.19" stop-color="#af182c"/><stop offset="0.43" stop-color="#802146"/><stop offset="0.84" stop-color="#283276"/></linearGradient></defs><circle class="cls-1" cx="80.79" cy="80.79" r="80.79"/><path class="cls-2" d="M293.57,454.46l3.86-4.83,9.23-11.55,11.21-14L327.51,412l3.19-4,1-1.24a3.62,3.62,0,0,0,.52-.65.24.24,0,0,1,.06-.08,2.47,2.47,0,0,1-.38.21l-.92.53-.92.53a1.16,1.16,0,0,0-.37.23l-3.87,4.83-9.23,11.55-11.2,14L295.73,450l-3.18,4-1,1.24a3.18,3.18,0,0,0-.51.65L291,456a2.15,2.15,0,0,1,.39-.21l.92-.53.91-.53a1.33,1.33,0,0,0,.38-.23Z" transform="translate(-202.5 -326)"/><path class="cls-2" d="M335.92,453.06,322,435.6q-2.13-2.69-4.27-5.35c-.1-.13-2.52,1.6-2.59,1.5l13.92,17.46,4.27,5.35c.11.13,2.52-1.6,2.6-1.5Z" transform="translate(-202.5 -326)"/><path class="cls-2" d="M306.65,419q-6.39-7.41-12.76-14.83c-.13-.16-2.49,1.62-2.6,1.5q6.39,7.41,12.76,14.83c.14.16,2.49-1.62,2.6-1.5Z" transform="translate(-202.5 -326)"/><path class="cls-3" d="M302.75,420.44Q296.36,413,290,405.61c-.05-.05-.83.54-.87.5q6.39,7.41,12.76,14.83c.05.05.83-.54.87-.5Z" transform="translate(-202.5 -326)"/><path class="cls-3" d="M289.67,455.89l3.86-4.83,9.23-11.55,11.2-14,9.65-12.07,3.18-4,1-1.24a3.18,3.18,0,0,0,.51-.65l.07-.08c-.19.24-.67.25-.86.5l-3.87,4.83-9.23,11.55-11.2,14-9.65,12.07-3.18,4-1,1.25a3.18,3.18,0,0,0-.51.65l-.07.08c.19-.24.67-.26.87-.5Z" transform="translate(-202.5 -326)"/><path d="M245,430.89v-70h32.77a27.29,27.29,0,0,1,24,16.49,55.35,55.35,0,0,1-.89,45s-4.27,10.67-19.87,14.15a81.51,81.51,0,0,1-8.46.4H252l.13,6.34h20a94.27,94.27,0,0,0,9.87-.47,31.22,31.22,0,0,0,23.19-16.5c13.12-28,1-52.54,1-52.54a31.83,31.83,0,0,0-28-19.24H239.91v81.63l5.17,0Z" transform="translate(-202.5 -326)"/><path class="cls-3" d="M332,454.49q-7-8.73-13.93-17.47l-4.27-5.34c0-.05-.84.53-.87.5l13.93,17.46,4.27,5.35s.84-.53.87-.5Z" transform="translate(-202.5 -326)"/><path class="cls-4" d="M248.79,429.11V364h33.47s17-.15,24.51,15.34a47.3,47.3,0,0,1-.9,41.88s-4.36,9.92-20.3,13.15c0,0-3.53.38-8.65.38H254.4l0,5.9h22c6,0,10.09-.44,10.09-.44,17.34-2.41,23.68-15.35,23.68-15.35A55.21,55.21,0,0,0,311.23,376c-8.77-18.07-28.59-17.9-28.59-17.9H243.58v75.92l5.29,0Z" transform="translate(-202.5 -326)"/></svg>